<mxfile host="app.diagrams.net" agent="Mozilla/5.0 (Windows NT 10.0; Win64; x64) AppleWebKit/537.36 (KHTML, like Gecko) Chrome/131.0.0.0 Safari/537.36" version="26.0.8">
  <diagram name="Page-1" id="SeQanHor1oBcw3a1oFWV">
    <mxGraphModel dx="794" dy="446" grid="1" gridSize="10" guides="1" tooltips="1" connect="1" arrows="1" fold="1" page="1" pageScale="1" pageWidth="850" pageHeight="1100" math="0" shadow="0">
      <root>
        <mxCell id="0" />
        <mxCell id="1" parent="0" />
        <mxCell id="7fn99vlhQcl_byAki5XP-29" value="Serenity Styles" style="group;fontStyle=1" parent="1" vertex="1" connectable="0">
          <mxGeometry x="240" y="250" width="790" height="640" as="geometry" />
        </mxCell>
        <mxCell id="7fn99vlhQcl_byAki5XP-1" value="" style="whiteSpace=wrap;html=1;aspect=fixed;" parent="7fn99vlhQcl_byAki5XP-29" vertex="1">
          <mxGeometry x="62.368421052631575" width="640" height="640" as="geometry" />
        </mxCell>
        <mxCell id="7fn99vlhQcl_byAki5XP-2" value="User" style="shape=umlActor;verticalLabelPosition=bottom;verticalAlign=top;html=1;outlineConnect=0;" parent="7fn99vlhQcl_byAki5XP-29" vertex="1">
          <mxGeometry y="270" width="20.789473684210527" height="40" as="geometry" />
        </mxCell>
        <mxCell id="7fn99vlhQcl_byAki5XP-6" value="Admin" style="shape=umlActor;verticalLabelPosition=bottom;verticalAlign=top;html=1;outlineConnect=0;" parent="7fn99vlhQcl_byAki5XP-29" vertex="1">
          <mxGeometry x="769.2105263157895" y="250" width="20.789473684210527" height="40" as="geometry" />
        </mxCell>
        <mxCell id="7fn99vlhQcl_byAki5XP-7" value="Manage Profile" style="ellipse;whiteSpace=wrap;html=1;" parent="7fn99vlhQcl_byAki5XP-29" vertex="1">
          <mxGeometry x="155.92105263157893" y="40" width="166.31578947368422" height="40" as="geometry" />
        </mxCell>
        <mxCell id="7fn99vlhQcl_byAki5XP-8" value="Browse Products" style="ellipse;whiteSpace=wrap;html=1;" parent="7fn99vlhQcl_byAki5XP-29" vertex="1">
          <mxGeometry x="155.92105263157893" y="90" width="166.31578947368422" height="40" as="geometry" />
        </mxCell>
        <mxCell id="7fn99vlhQcl_byAki5XP-9" value="Product&amp;nbsp; Cart" style="ellipse;whiteSpace=wrap;html=1;" parent="7fn99vlhQcl_byAki5XP-29" vertex="1">
          <mxGeometry x="155.92105263157893" y="140" width="166.31578947368422" height="40" as="geometry" />
        </mxCell>
        <mxCell id="7fn99vlhQcl_byAki5XP-10" value="Order Placement" style="ellipse;whiteSpace=wrap;html=1;" parent="7fn99vlhQcl_byAki5XP-29" vertex="1">
          <mxGeometry x="155.92105263157893" y="190" width="166.31578947368422" height="40" as="geometry" />
        </mxCell>
        <mxCell id="7fn99vlhQcl_byAki5XP-11" value="Payment" style="ellipse;whiteSpace=wrap;html=1;" parent="7fn99vlhQcl_byAki5XP-29" vertex="1">
          <mxGeometry x="155.92105263157893" y="240" width="166.31578947368422" height="40" as="geometry" />
        </mxCell>
        <mxCell id="7fn99vlhQcl_byAki5XP-12" value="View Services" style="ellipse;whiteSpace=wrap;html=1;" parent="7fn99vlhQcl_byAki5XP-29" vertex="1">
          <mxGeometry x="166.31578947368422" y="290" width="166.31578947368422" height="40" as="geometry" />
        </mxCell>
        <mxCell id="7fn99vlhQcl_byAki5XP-13" value="Book Appointment" style="ellipse;whiteSpace=wrap;html=1;" parent="7fn99vlhQcl_byAki5XP-29" vertex="1">
          <mxGeometry x="176.71052631578948" y="420" width="166.31578947368422" height="40" as="geometry" />
        </mxCell>
        <mxCell id="7fn99vlhQcl_byAki5XP-14" value="Review" style="ellipse;whiteSpace=wrap;html=1;" parent="7fn99vlhQcl_byAki5XP-29" vertex="1">
          <mxGeometry x="176.71052631578948" y="480" width="166.31578947368422" height="40" as="geometry" />
        </mxCell>
        <mxCell id="7fn99vlhQcl_byAki5XP-19" value="" style="endArrow=none;html=1;rounded=0;entryX=0;entryY=0.5;entryDx=0;entryDy=0;" parent="7fn99vlhQcl_byAki5XP-29" target="7fn99vlhQcl_byAki5XP-7" edge="1">
          <mxGeometry width="50" height="50" relative="1" as="geometry">
            <mxPoint x="31.184210526315788" y="290" as="sourcePoint" />
            <mxPoint x="83.15789473684211" y="240" as="targetPoint" />
          </mxGeometry>
        </mxCell>
        <mxCell id="7fn99vlhQcl_byAki5XP-20" value="" style="endArrow=none;html=1;rounded=0;entryX=0;entryY=0.5;entryDx=0;entryDy=0;" parent="7fn99vlhQcl_byAki5XP-29" target="7fn99vlhQcl_byAki5XP-8" edge="1">
          <mxGeometry width="50" height="50" relative="1" as="geometry">
            <mxPoint x="31.184210526315788" y="290" as="sourcePoint" />
            <mxPoint x="83.15789473684211" y="240" as="targetPoint" />
          </mxGeometry>
        </mxCell>
        <mxCell id="7fn99vlhQcl_byAki5XP-22" value="" style="endArrow=none;html=1;rounded=0;entryX=0;entryY=0.5;entryDx=0;entryDy=0;" parent="7fn99vlhQcl_byAki5XP-29" target="7fn99vlhQcl_byAki5XP-9" edge="1">
          <mxGeometry width="50" height="50" relative="1" as="geometry">
            <mxPoint x="31.184210526315788" y="290" as="sourcePoint" />
            <mxPoint x="166.39894736842098" y="190.07999999999993" as="targetPoint" />
          </mxGeometry>
        </mxCell>
        <mxCell id="7fn99vlhQcl_byAki5XP-23" value="" style="endArrow=none;html=1;rounded=0;entryX=0;entryY=0.5;entryDx=0;entryDy=0;" parent="7fn99vlhQcl_byAki5XP-29" target="7fn99vlhQcl_byAki5XP-10" edge="1">
          <mxGeometry width="50" height="50" relative="1" as="geometry">
            <mxPoint x="31.184210526315788" y="290" as="sourcePoint" />
            <mxPoint x="93.55263157894737" y="250" as="targetPoint" />
          </mxGeometry>
        </mxCell>
        <mxCell id="7fn99vlhQcl_byAki5XP-25" value="" style="endArrow=none;html=1;rounded=0;entryX=0;entryY=0.5;entryDx=0;entryDy=0;" parent="7fn99vlhQcl_byAki5XP-29" target="7fn99vlhQcl_byAki5XP-11" edge="1">
          <mxGeometry width="50" height="50" relative="1" as="geometry">
            <mxPoint x="31.184210526315788" y="290" as="sourcePoint" />
            <mxPoint x="124.73684210526315" y="265" as="targetPoint" />
          </mxGeometry>
        </mxCell>
        <mxCell id="7fn99vlhQcl_byAki5XP-26" value="" style="endArrow=none;html=1;rounded=0;" parent="7fn99vlhQcl_byAki5XP-29" edge="1">
          <mxGeometry width="50" height="50" relative="1" as="geometry">
            <mxPoint x="166.31578947368422" y="310" as="sourcePoint" />
            <mxPoint x="31.184210526315788" y="290" as="targetPoint" />
            <Array as="points">
              <mxPoint x="166.31578947368422" y="310" />
            </Array>
          </mxGeometry>
        </mxCell>
        <mxCell id="7fn99vlhQcl_byAki5XP-34" value="Manage Users" style="ellipse;whiteSpace=wrap;html=1;" parent="7fn99vlhQcl_byAki5XP-29" vertex="1">
          <mxGeometry x="478.15789473684214" y="70" width="166.31578947368422" height="40" as="geometry" />
        </mxCell>
        <mxCell id="7fn99vlhQcl_byAki5XP-35" value="Product Management" style="ellipse;whiteSpace=wrap;html=1;" parent="7fn99vlhQcl_byAki5XP-29" vertex="1">
          <mxGeometry x="478.15789473684214" y="120" width="166.31578947368422" height="40" as="geometry" />
        </mxCell>
        <mxCell id="7fn99vlhQcl_byAki5XP-37" value="Service Management" style="ellipse;whiteSpace=wrap;html=1;" parent="7fn99vlhQcl_byAki5XP-29" vertex="1">
          <mxGeometry x="478.15789473684214" y="170" width="166.31578947368422" height="40" as="geometry" />
        </mxCell>
        <mxCell id="7fn99vlhQcl_byAki5XP-38" value="Appointment Management" style="ellipse;whiteSpace=wrap;html=1;" parent="7fn99vlhQcl_byAki5XP-29" vertex="1">
          <mxGeometry x="478.15789473684214" y="220" width="166.31578947368422" height="40" as="geometry" />
        </mxCell>
        <mxCell id="7fn99vlhQcl_byAki5XP-39" value="Manage Orders" style="ellipse;whiteSpace=wrap;html=1;" parent="7fn99vlhQcl_byAki5XP-29" vertex="1">
          <mxGeometry x="478.15789473684214" y="270" width="166.31578947368422" height="40" as="geometry" />
        </mxCell>
        <mxCell id="7fn99vlhQcl_byAki5XP-40" value="Verify Password" style="ellipse;whiteSpace=wrap;html=1;" parent="7fn99vlhQcl_byAki5XP-29" vertex="1">
          <mxGeometry x="478.15789473684214" y="320" width="166.31578947368422" height="40" as="geometry" />
        </mxCell>
        <mxCell id="7fn99vlhQcl_byAki5XP-41" value="" style="endArrow=none;html=1;rounded=0;entryX=1;entryY=0.5;entryDx=0;entryDy=0;entryPerimeter=0;" parent="7fn99vlhQcl_byAki5XP-29" target="7fn99vlhQcl_byAki5XP-34" edge="1">
          <mxGeometry width="50" height="50" relative="1" as="geometry">
            <mxPoint x="758.8157894736842" y="270" as="sourcePoint" />
            <mxPoint x="644.4736842105264" y="100" as="targetPoint" />
          </mxGeometry>
        </mxCell>
        <mxCell id="7fn99vlhQcl_byAki5XP-42" value="" style="endArrow=none;html=1;rounded=0;exitX=0.979;exitY=0.743;exitDx=0;exitDy=0;exitPerimeter=0;" parent="7fn99vlhQcl_byAki5XP-29" source="7fn99vlhQcl_byAki5XP-35" edge="1">
          <mxGeometry width="50" height="50" relative="1" as="geometry">
            <mxPoint x="640" y="140" as="sourcePoint" />
            <mxPoint x="758.8157894736842" y="270" as="targetPoint" />
          </mxGeometry>
        </mxCell>
        <mxCell id="7fn99vlhQcl_byAki5XP-43" value="" style="endArrow=none;html=1;rounded=0;exitX=1;exitY=0.5;exitDx=0;exitDy=0;" parent="7fn99vlhQcl_byAki5XP-29" source="7fn99vlhQcl_byAki5XP-37" edge="1">
          <mxGeometry width="50" height="50" relative="1" as="geometry">
            <mxPoint x="654.8684210526317" y="315" as="sourcePoint" />
            <mxPoint x="758.8157894736842" y="270" as="targetPoint" />
          </mxGeometry>
        </mxCell>
        <mxCell id="7fn99vlhQcl_byAki5XP-44" value="" style="endArrow=none;html=1;rounded=0;exitX=1;exitY=0.5;exitDx=0;exitDy=0;" parent="7fn99vlhQcl_byAki5XP-29" source="7fn99vlhQcl_byAki5XP-38" edge="1">
          <mxGeometry width="50" height="50" relative="1" as="geometry">
            <mxPoint x="706.8421052631579" y="320" as="sourcePoint" />
            <mxPoint x="758.8157894736842" y="270" as="targetPoint" />
          </mxGeometry>
        </mxCell>
        <mxCell id="7fn99vlhQcl_byAki5XP-45" value="" style="endArrow=none;html=1;rounded=0;exitX=1;exitY=0.5;exitDx=0;exitDy=0;" parent="7fn99vlhQcl_byAki5XP-29" source="7fn99vlhQcl_byAki5XP-39" edge="1">
          <mxGeometry width="50" height="50" relative="1" as="geometry">
            <mxPoint x="706.8421052631579" y="330" as="sourcePoint" />
            <mxPoint x="758.8157894736842" y="270" as="targetPoint" />
          </mxGeometry>
        </mxCell>
        <mxCell id="7fn99vlhQcl_byAki5XP-46" value="" style="endArrow=none;html=1;rounded=0;" parent="7fn99vlhQcl_byAki5XP-29" edge="1">
          <mxGeometry width="50" height="50" relative="1" as="geometry">
            <mxPoint x="644.4736842105264" y="340" as="sourcePoint" />
            <mxPoint x="758.8157894736842" y="270" as="targetPoint" />
            <Array as="points">
              <mxPoint x="644.4736842105264" y="340" />
            </Array>
          </mxGeometry>
        </mxCell>
        <mxCell id="7fn99vlhQcl_byAki5XP-47" value="Login" style="ellipse;whiteSpace=wrap;html=1;" parent="7fn99vlhQcl_byAki5XP-29" vertex="1">
          <mxGeometry x="436.57894736842104" y="410" width="166.31578947368422" height="40" as="geometry" />
        </mxCell>
        <mxCell id="7fn99vlhQcl_byAki5XP-49" value="" style="endArrow=none;html=1;rounded=0;entryX=0;entryY=0.5;entryDx=0;entryDy=0;" parent="7fn99vlhQcl_byAki5XP-29" target="7fn99vlhQcl_byAki5XP-14" edge="1">
          <mxGeometry width="50" height="50" relative="1" as="geometry">
            <mxPoint x="31.184210526315788" y="290" as="sourcePoint" />
            <mxPoint x="145.5263157894737" y="380" as="targetPoint" />
          </mxGeometry>
        </mxCell>
        <mxCell id="7fn99vlhQcl_byAki5XP-51" value="" style="endArrow=none;html=1;rounded=0;entryX=0;entryY=0.5;entryDx=0;entryDy=0;" parent="7fn99vlhQcl_byAki5XP-29" target="7fn99vlhQcl_byAki5XP-13" edge="1">
          <mxGeometry width="50" height="50" relative="1" as="geometry">
            <mxPoint x="31.184210526315788" y="290" as="sourcePoint" />
            <mxPoint x="192.30263157894737" y="350" as="targetPoint" />
          </mxGeometry>
        </mxCell>
        <mxCell id="7fn99vlhQcl_byAki5XP-52" value="" style="endArrow=none;html=1;rounded=0;entryX=0;entryY=0.5;entryDx=0;entryDy=0;" parent="7fn99vlhQcl_byAki5XP-29" target="7fn99vlhQcl_byAki5XP-47" edge="1">
          <mxGeometry width="50" height="50" relative="1" as="geometry">
            <mxPoint x="31.184210526315788" y="290" as="sourcePoint" />
            <mxPoint x="332.63157894736844" y="340" as="targetPoint" />
          </mxGeometry>
        </mxCell>
        <mxCell id="7fn99vlhQcl_byAki5XP-53" value="" style="endArrow=none;html=1;rounded=0;" parent="7fn99vlhQcl_byAki5XP-29" edge="1">
          <mxGeometry width="50" height="50" relative="1" as="geometry">
            <mxPoint x="602.8947368421053" y="430" as="sourcePoint" />
            <mxPoint x="758.8157894736842" y="270" as="targetPoint" />
          </mxGeometry>
        </mxCell>
        <mxCell id="7fn99vlhQcl_byAki5XP-55" value="&amp;lt;&amp;lt;include&amp;gt;&amp;gt;" style="html=1;labelBackgroundColor=#ffffff;startArrow=none;startFill=0;startSize=6;endArrow=classic;endFill=1;endSize=6;jettySize=auto;orthogonalLoop=1;strokeWidth=1;dashed=1;fontSize=14;rounded=0;exitX=0.719;exitY=0.641;exitDx=0;exitDy=0;exitPerimeter=0;" parent="7fn99vlhQcl_byAki5XP-29" source="7fn99vlhQcl_byAki5XP-1" edge="1">
          <mxGeometry width="60" height="60" relative="1" as="geometry">
            <mxPoint x="478.15789473684214" y="420" as="sourcePoint" />
            <mxPoint x="540.5263157894738" y="360" as="targetPoint" />
          </mxGeometry>
        </mxCell>
        <mxCell id="7fn99vlhQcl_byAki5XP-56" value="Invalid Password" style="ellipse;whiteSpace=wrap;html=1;" parent="7fn99vlhQcl_byAki5XP-29" vertex="1">
          <mxGeometry x="446.9736842105263" y="510" width="166.31578947368422" height="40" as="geometry" />
        </mxCell>
        <mxCell id="7fn99vlhQcl_byAki5XP-57" value="&amp;lt;&amp;lt;extend&amp;gt;&amp;gt;" style="html=1;labelBackgroundColor=#ffffff;startArrow=none;startFill=0;startSize=6;endArrow=classic;endFill=1;endSize=6;jettySize=auto;orthogonalLoop=1;strokeWidth=1;dashed=1;fontSize=14;rounded=0;exitX=0.5;exitY=0;exitDx=0;exitDy=0;" parent="7fn99vlhQcl_byAki5XP-29" source="7fn99vlhQcl_byAki5XP-56" edge="1">
          <mxGeometry width="60" height="60" relative="1" as="geometry">
            <mxPoint x="467.7631578947368" y="510" as="sourcePoint" />
            <mxPoint x="530.1315789473684" y="450" as="targetPoint" />
          </mxGeometry>
        </mxCell>
      </root>
    </mxGraphModel>
  </diagram>
</mxfile>
